<mxfile host="Electron" agent="Mozilla/5.0 (Windows NT 10.0; Win64; x64) AppleWebKit/537.36 (KHTML, like Gecko) draw.io/28.1.2 Chrome/138.0.7204.243 Electron/37.4.0 Safari/537.36" version="28.1.2">
  <diagram name="Seite-1" id="79Aro6NqEYWULLvk8Iu5">
    <mxGraphModel dx="1188" dy="701" grid="1" gridSize="10" guides="1" tooltips="1" connect="1" arrows="1" fold="1" page="1" pageScale="1" pageWidth="827" pageHeight="1169" math="0" shadow="0">
      <root>
        <mxCell id="0" />
        <mxCell id="1" parent="0" />
        <mxCell id="3i0Yc3-s6kQXvrzpkfLg-11" value="" style="edgeStyle=orthogonalEdgeStyle;rounded=0;orthogonalLoop=1;jettySize=auto;html=1;" edge="1" parent="1" source="3i0Yc3-s6kQXvrzpkfLg-3" target="3i0Yc3-s6kQXvrzpkfLg-6">
          <mxGeometry relative="1" as="geometry" />
        </mxCell>
        <mxCell id="3i0Yc3-s6kQXvrzpkfLg-3" value="Start" style="ellipse;whiteSpace=wrap;html=1;" vertex="1" parent="1">
          <mxGeometry x="415" y="50" width="56" height="50" as="geometry" />
        </mxCell>
        <mxCell id="3i0Yc3-s6kQXvrzpkfLg-4" value="Ende" style="ellipse;whiteSpace=wrap;html=1;" vertex="1" parent="1">
          <mxGeometry x="416" y="529.5" width="54" height="55" as="geometry" />
        </mxCell>
        <mxCell id="3i0Yc3-s6kQXvrzpkfLg-15" value="" style="edgeStyle=orthogonalEdgeStyle;rounded=0;orthogonalLoop=1;jettySize=auto;html=1;" edge="1" parent="1" source="3i0Yc3-s6kQXvrzpkfLg-5" target="3i0Yc3-s6kQXvrzpkfLg-10">
          <mxGeometry relative="1" as="geometry" />
        </mxCell>
        <mxCell id="3i0Yc3-s6kQXvrzpkfLg-5" value="input" style="shape=parallelogram;perimeter=parallelogramPerimeter;whiteSpace=wrap;html=1;fixedSize=1;" vertex="1" parent="1">
          <mxGeometry x="383" y="230" width="120" height="60" as="geometry" />
        </mxCell>
        <mxCell id="3i0Yc3-s6kQXvrzpkfLg-14" value="" style="edgeStyle=orthogonalEdgeStyle;rounded=0;orthogonalLoop=1;jettySize=auto;html=1;" edge="1" parent="1" source="3i0Yc3-s6kQXvrzpkfLg-6" target="3i0Yc3-s6kQXvrzpkfLg-5">
          <mxGeometry relative="1" as="geometry" />
        </mxCell>
        <mxCell id="3i0Yc3-s6kQXvrzpkfLg-6" value="print: Wie Alt bist du ?" style="rounded=1;whiteSpace=wrap;html=1;" vertex="1" parent="1">
          <mxGeometry x="383" y="130" width="120" height="60" as="geometry" />
        </mxCell>
        <mxCell id="3i0Yc3-s6kQXvrzpkfLg-32" style="edgeStyle=orthogonalEdgeStyle;rounded=0;orthogonalLoop=1;jettySize=auto;html=1;entryX=1;entryY=0.5;entryDx=0;entryDy=0;" edge="1" parent="1" target="3i0Yc3-s6kQXvrzpkfLg-4">
          <mxGeometry relative="1" as="geometry">
            <mxPoint x="720" y="560" as="targetPoint" />
            <mxPoint x="660" y="360" as="sourcePoint" />
            <Array as="points">
              <mxPoint x="660" y="361" />
              <mxPoint x="670" y="361" />
              <mxPoint x="670" y="557" />
            </Array>
          </mxGeometry>
        </mxCell>
        <mxCell id="3i0Yc3-s6kQXvrzpkfLg-7" value="Aha. Eines Tages wirst du Alt" style="rounded=0;whiteSpace=wrap;html=1;" vertex="1" parent="1">
          <mxGeometry x="610" y="340" width="120" height="60" as="geometry" />
        </mxCell>
        <mxCell id="3i0Yc3-s6kQXvrzpkfLg-17" value="" style="edgeStyle=orthogonalEdgeStyle;rounded=0;orthogonalLoop=1;jettySize=auto;html=1;" edge="1" parent="1" source="3i0Yc3-s6kQXvrzpkfLg-10" target="3i0Yc3-s6kQXvrzpkfLg-16">
          <mxGeometry relative="1" as="geometry" />
        </mxCell>
        <mxCell id="3i0Yc3-s6kQXvrzpkfLg-19" value="No" style="edgeStyle=orthogonalEdgeStyle;rounded=0;orthogonalLoop=1;jettySize=auto;html=1;" edge="1" parent="1" source="3i0Yc3-s6kQXvrzpkfLg-10" target="3i0Yc3-s6kQXvrzpkfLg-7">
          <mxGeometry relative="1" as="geometry" />
        </mxCell>
        <mxCell id="3i0Yc3-s6kQXvrzpkfLg-10" value="Ã¼ber 50" style="rhombus;whiteSpace=wrap;html=1;" vertex="1" parent="1">
          <mxGeometry x="403" y="330" width="80" height="80" as="geometry" />
        </mxCell>
        <mxCell id="3i0Yc3-s6kQXvrzpkfLg-18" value="" style="edgeStyle=orthogonalEdgeStyle;rounded=0;orthogonalLoop=1;jettySize=auto;html=1;" edge="1" parent="1" source="3i0Yc3-s6kQXvrzpkfLg-16" target="3i0Yc3-s6kQXvrzpkfLg-4">
          <mxGeometry relative="1" as="geometry" />
        </mxCell>
        <mxCell id="3i0Yc3-s6kQXvrzpkfLg-16" value="Du bist Alt geworden" style="rounded=1;whiteSpace=wrap;html=1;" vertex="1" parent="1">
          <mxGeometry x="383" y="440" width="120" height="60" as="geometry" />
        </mxCell>
      </root>
    </mxGraphModel>
  </diagram>
</mxfile>
